REM DIRINDEX 1\2\6,1\2\7,1\2\8,1\3\9,1\3\10,1\3\11,1\4\12,1\4\13,1\4\14,1\5\15,1\5\16,1\5\17,1\5\18
REM DIRNAME cjc019,folder01,folder02,folder03,folder04,folder05,folder06,folder07,folder08,folder09,folder10,folder11,folder12,folder13,folder14,folder15,folder16,folder17
TITLE ""
FILE "2Q_t_0809-0825.mp3" MP3
  TRACK 01 AUDIO
    TITLE "12:cjc019_3678"
    INDEX 01 00:00:00
  TRACK 02 AUDIO
    TITLE "0:"
    INDEX 01 00:07:17
  TRACK 03 AUDIO
    TITLE "13:cjc019_3679"
    INDEX 01 00:08:26
  TRACK 04 AUDIO
    TITLE "0:"
    INDEX 01 00:09:20
  TRACK 05 AUDIO
    TITLE "14:cjc019_3680"
    INDEX 01 00:10:04
  TRACK 06 AUDIO
    TITLE "0:"
    INDEX 01 00:13:69
  TRACK 07 AUDIO
    TITLE "13:cjc019_3681"
    INDEX 01 00:14:47
  TRACK 08 AUDIO
    TITLE "0:"
    INDEX 01 00:15:62
  TRACK 09 AUDIO
    TITLE "14:cjc019_3682"
    INDEX 01 00:16:46
  TRACK 10 AUDIO
    TITLE "0:"
    INDEX 01 00:17:72
  TRACK 11 AUDIO
    TITLE "13:cjc019_3683"
    INDEX 01 00:18:46
  TRACK 12 AUDIO
    TITLE "0:"
    INDEX 01 00:19:48
  TRACK 13 AUDIO
    TITLE "14:cjc019_3684"
    INDEX 01 00:20:37
  TRACK 14 AUDIO
    TITLE "0:"
    INDEX 01 00:24:51
  TRACK 15 AUDIO
    TITLE "13:cjc019_3685"
    INDEX 01 00:25:27
  TRACK 16 AUDIO
    TITLE "0:"
    INDEX 01 00:26:48
  TRACK 17 AUDIO
    TITLE "14:cjc019_3686"
    INDEX 01 00:27:32
  TRACK 18 AUDIO
    TITLE "0:"
    INDEX 01 00:28:53
  TRACK 19 AUDIO
    TITLE "13:cjc019_3687"
    INDEX 01 00:29:34
  TRACK 20 AUDIO
    TITLE "0:"
    INDEX 01 00:30:50
  TRACK 21 AUDIO
    TITLE "14:cjc019_3688"
    INDEX 01 00:31:29
  TRACK 22 AUDIO
    TITLE "0:"
    INDEX 01 00:34:30
  TRACK 23 AUDIO
    TITLE "13:cjc019_3689"
    INDEX 01 00:35:12
  TRACK 24 AUDIO
    TITLE "0:"
    INDEX 01 00:36:27
  TRACK 25 AUDIO
    TITLE "14:cjc019_3690"
    INDEX 01 00:37:05
  TRACK 26 AUDIO
    TITLE "0:"
    INDEX 01 00:39:66
  TRACK 27 AUDIO
    TITLE "13:cjc019_3691"
    INDEX 01 00:40:42
  TRACK 28 AUDIO
    TITLE "0:"
    INDEX 01 00:41:57
  TRACK 29 AUDIO
    TITLE "14:cjc019_3692"
    INDEX 01 00:42:35
  TRACK 30 AUDIO
    TITLE "0:"
    INDEX 01 00:44:48
  TRACK 31 AUDIO
    TITLE "13:cjc019_3693"
    INDEX 01 00:45:22
  TRACK 32 AUDIO
    TITLE "0:"
    INDEX 01 00:46:47
  TRACK 33 AUDIO
    TITLE "14:cjc019_3694"
    INDEX 01 00:47:27
  TRACK 34 AUDIO
    TITLE "0:"
    INDEX 01 00:48:59
  TRACK 35 AUDIO
    TITLE "13:cjc019_3695"
    INDEX 01 00:49:41
  TRACK 36 AUDIO
    TITLE "0:"
    INDEX 01 00:50:60
  TRACK 37 AUDIO
    TITLE "14:cjc019_3696"
    INDEX 01 00:51:42
  TRACK 38 AUDIO
    TITLE "0:"
    INDEX 01 00:56:53
  TRACK 39 AUDIO
    TITLE "13:cjc019_3697"
    INDEX 01 00:57:31
  TRACK 40 AUDIO
    TITLE "0:"
    INDEX 01 00:58:69
  TRACK 41 AUDIO
    TITLE "14:cjc019_3698"
    INDEX 01 00:59:49
  TRACK 42 AUDIO
    TITLE "0:"
    INDEX 01 01:02:42
  TRACK 43 AUDIO
    TITLE "13:cjc019_3699"
    INDEX 01 01:03:18
  TRACK 44 AUDIO
    TITLE "0:"
    INDEX 01 01:04:60
  TRACK 45 AUDIO
    TITLE "14:cjc019_3700"
    INDEX 01 01:05:36
  TRACK 46 AUDIO
    TITLE "0:"
    INDEX 01 01:06:59
  TRACK 47 AUDIO
    TITLE "13:cjc019_3701"
    INDEX 01 01:07:39
  TRACK 48 AUDIO
    TITLE "0:"
    INDEX 01 01:08:50
  TRACK 49 AUDIO
    TITLE "14:cjc019_3702"
    INDEX 01 01:09:36
  TRACK 50 AUDIO
    TITLE "0:"
    INDEX 01 01:12:73
  TRACK 51 AUDIO
    TITLE "13:cjc019_3703"
    INDEX 01 01:13:49
  TRACK 52 AUDIO
    TITLE "0:"
    INDEX 01 01:15:11
  TRACK 53 AUDIO
    TITLE "14:cjc019_3704"
    INDEX 01 01:15:66
  TRACK 54 AUDIO
    TITLE "0:"
    INDEX 01 01:19:17
  TRACK 55 AUDIO
    TITLE "13:cjc019_3705"
    INDEX 01 01:19:70
  TRACK 56 AUDIO
    TITLE "0:"
    INDEX 01 01:21:06
  TRACK 57 AUDIO
    TITLE "14:cjc019_3706"
    INDEX 01 01:21:59
  TRACK 58 AUDIO
    TITLE "0:"
    INDEX 01 01:23:28
  TRACK 59 AUDIO
    TITLE "13:cjc019_3707"
    INDEX 01 01:24:00
  TRACK 60 AUDIO
    TITLE "0:"
    INDEX 01 01:25:23
  TRACK 61 AUDIO
    TITLE "14:cjc019_3708"
    INDEX 01 01:26:01
  TRACK 62 AUDIO
    TITLE "0:"
    INDEX 01 01:27:16
  TRACK 63 AUDIO
    TITLE "13:cjc019_3709"
    INDEX 01 01:27:69
  TRACK 64 AUDIO
    TITLE "0:"
    INDEX 01 01:29:09
  TRACK 65 AUDIO
    TITLE "14:cjc019_3710"
    INDEX 01 01:29:60
  TRACK 66 AUDIO
    TITLE "0:"
    INDEX 01 01:31:06
  TRACK 67 AUDIO
    TITLE "13:cjc019_3711"
    INDEX 01 01:31:57
  TRACK 68 AUDIO
    TITLE "0:"
    INDEX 01 01:33:05
  TRACK 69 AUDIO
    TITLE "14:cjc019_3712"
    INDEX 01 01:33:54
  TRACK 70 AUDIO
    TITLE "0:"
    INDEX 01 01:37:09
